<mxfile host="app.diagrams.net" modified="2023-06-08T07:46:31.299Z" agent="Mozilla/5.0 (Windows NT 10.0; Win64; x64) AppleWebKit/537.36 (KHTML, like Gecko) Chrome/114.0.0.0 Safari/537.36 Edg/114.0.1823.37" etag="zT_fK0M8e2PhiRzi-Rdv" version="21.3.7" type="github">
  <diagram id="C5RBs43oDa-KdzZeNtuy" name="Page-1">
    <mxGraphModel dx="869" dy="553" grid="1" gridSize="10" guides="1" tooltips="1" connect="1" arrows="1" fold="1" page="1" pageScale="1" pageWidth="827" pageHeight="1169" math="0" shadow="0">
      <root>
        <mxCell id="WIyWlLk6GJQsqaUBKTNV-0" />
        <mxCell id="WIyWlLk6GJQsqaUBKTNV-1" parent="WIyWlLk6GJQsqaUBKTNV-0" />
        <mxCell id="Mmq6kyScPrCzMewQ-IfZ-7" style="edgeStyle=orthogonalEdgeStyle;rounded=0;orthogonalLoop=1;jettySize=auto;html=1;exitX=0.5;exitY=1;exitDx=0;exitDy=0;entryX=0.5;entryY=0;entryDx=0;entryDy=0;" edge="1" parent="WIyWlLk6GJQsqaUBKTNV-1" source="Mmq6kyScPrCzMewQ-IfZ-8" target="Mmq6kyScPrCzMewQ-IfZ-13">
          <mxGeometry relative="1" as="geometry" />
        </mxCell>
        <mxCell id="Mmq6kyScPrCzMewQ-IfZ-8" value="直属领导" style="rounded=1;whiteSpace=wrap;html=1;fontSize=12;glass=0;strokeWidth=1;shadow=0;" vertex="1" parent="WIyWlLk6GJQsqaUBKTNV-1">
          <mxGeometry x="179" y="200" width="120" height="40" as="geometry" />
        </mxCell>
        <mxCell id="Mmq6kyScPrCzMewQ-IfZ-9" style="edgeStyle=orthogonalEdgeStyle;rounded=0;orthogonalLoop=1;jettySize=auto;html=1;exitX=0.5;exitY=1;exitDx=0;exitDy=0;entryX=0.5;entryY=0;entryDx=0;entryDy=0;" edge="1" parent="WIyWlLk6GJQsqaUBKTNV-1" source="Mmq6kyScPrCzMewQ-IfZ-10" target="Mmq6kyScPrCzMewQ-IfZ-8">
          <mxGeometry relative="1" as="geometry" />
        </mxCell>
        <mxCell id="Mmq6kyScPrCzMewQ-IfZ-10" value="开始" style="ellipse;whiteSpace=wrap;html=1;aspect=fixed;fillColor=#dae8fc;strokeColor=#6c8ebf;" vertex="1" parent="WIyWlLk6GJQsqaUBKTNV-1">
          <mxGeometry x="214" y="60" width="50" height="50" as="geometry" />
        </mxCell>
        <mxCell id="Mmq6kyScPrCzMewQ-IfZ-11" value="结束" style="ellipse;whiteSpace=wrap;html=1;aspect=fixed;fillColor=#d5e8d4;strokeColor=#82b366;" vertex="1" parent="WIyWlLk6GJQsqaUBKTNV-1">
          <mxGeometry x="214" y="410" width="50" height="50" as="geometry" />
        </mxCell>
        <mxCell id="Mmq6kyScPrCzMewQ-IfZ-12" style="edgeStyle=orthogonalEdgeStyle;rounded=0;orthogonalLoop=1;jettySize=auto;html=1;exitX=0.5;exitY=1;exitDx=0;exitDy=0;entryX=0.5;entryY=0;entryDx=0;entryDy=0;" edge="1" parent="WIyWlLk6GJQsqaUBKTNV-1" source="Mmq6kyScPrCzMewQ-IfZ-13" target="Mmq6kyScPrCzMewQ-IfZ-11">
          <mxGeometry relative="1" as="geometry" />
        </mxCell>
        <mxCell id="Mmq6kyScPrCzMewQ-IfZ-13" value="IT运维" style="rounded=1;whiteSpace=wrap;html=1;fontSize=12;glass=0;strokeWidth=1;shadow=0;" vertex="1" parent="WIyWlLk6GJQsqaUBKTNV-1">
          <mxGeometry x="179" y="280" width="120" height="40" as="geometry" />
        </mxCell>
        <mxCell id="Mmq6kyScPrCzMewQ-IfZ-14" value="申请人" style="rounded=1;whiteSpace=wrap;html=1;fontSize=12;glass=0;strokeWidth=1;shadow=0;" vertex="1" parent="WIyWlLk6GJQsqaUBKTNV-1">
          <mxGeometry x="179" y="130" width="120" height="40" as="geometry" />
        </mxCell>
        <mxCell id="Mmq6kyScPrCzMewQ-IfZ-15" value="申请人确认" style="rounded=1;whiteSpace=wrap;html=1;fontSize=12;glass=0;strokeWidth=1;shadow=0;" vertex="1" parent="WIyWlLk6GJQsqaUBKTNV-1">
          <mxGeometry x="179" y="350" width="120" height="40" as="geometry" />
        </mxCell>
      </root>
    </mxGraphModel>
  </diagram>
</mxfile>
